<svg id="Layer_1" data-name="Layer 1" xmlns="http://www.w3.org/2000/svg" width="96.52mm" height="134.056mm" viewBox="0 0 273.6 380.00126">
  <title>z12_done</title>
  <rect width="273.6" height="380.00126" style="fill: #ccc"/>
  <g>
    <path d="M129.93311,29.18164l3.55712-4.46387h-3.37744v-.648h4.44336V24.502l-3.54443,4.46387h3.69873v.64795h-4.77734Z"/>
    <path d="M138.40869,22.126H138.396l-1.64356,1.25976-.4751-.55176,2.24707-1.7163h.65528v8.49609h-.771Z"/>
    <path d="M142.26172,28.77393l3.416-3.37207q.23145-.21607.46289-.46192a4.46449,4.46449,0,0,0,.417-.51611,2.75044,2.75044,0,0,0,.30176-.56983,1.78659,1.78659,0,0,0,.11523-.64843,1.41936,1.41936,0,0,0-.51367-1.16358,1.97859,1.97859,0,0,0-1.29688-.42041,1.87285,1.87285,0,0,0-1.19433.38428,1.7258,1.7258,0,0,0-.62891,1.00781l-.89941-.084a2.24958,2.24958,0,0,1,.96386-1.46973,3.21491,3.21491,0,0,1,1.79785-.48633,3.31568,3.31568,0,0,1,1.001.14991,2.6848,2.6848,0,0,1,.835.42626,2.05086,2.05086,0,0,1,.57129.67774,1.9378,1.9378,0,0,1,.21192.91846,2.54258,2.54258,0,0,1-.16016.91162,3.71108,3.71108,0,0,1-.42383.79834,5.14311,5.14311,0,0,1-.60351.71386q-.34131.33619-.6875.67188l-2.83789,2.72412h4.77734v.64795h-5.625Z"/>
  </g>
  <g>
    <path d="M54.73975,34.74561a2.556,2.556,0,0,1-1.11084.9121,3.7573,3.7573,0,0,1-1.45752.27588,3.36585,3.36585,0,0,1-1.23291-.21582,2.79619,2.79619,0,0,1-.95069-.60644,2.646,2.646,0,0,1-.60986-.92383,3.18157,3.18157,0,0,1-.21191-1.18213,2.98735,2.98735,0,0,1,.21826-1.15185,2.72961,2.72961,0,0,1,.6167-.918,2.8995,2.8995,0,0,1,.9375-.61182,3.10835,3.10835,0,0,1,1.19433-.22217,3.0374,3.0374,0,0,1,1.20069.22217,2.62574,2.62574,0,0,1,.873.58789,2.46889,2.46889,0,0,1,.53321.834,2.62866,2.62866,0,0,1,.17968.94775v.50439H49.93652a2.30939,2.30939,0,0,0,.09668.582,1.9993,1.9993,0,0,0,.353.68994,2.17889,2.17889,0,0,0,.687.57568,2.26321,2.26321,0,0,0,1.11084.24023,2.61839,2.61839,0,0,0,1.14307-.26416,2.02038,2.02038,0,0,0,.84765-.71972Zm-.59082-2.19629a1.54763,1.54763,0,0,0-.16065-.6958,1.86966,1.86966,0,0,0-.43652-.56983,2.09224,2.09224,0,0,0-.65479-.39014,2.23885,2.23885,0,0,0-.80273-.144,2.07436,2.07436,0,0,0-1.04688.24024,2.2443,2.2443,0,0,0-.66113.55175,2.15122,2.15122,0,0,0-.34668.606,1.512,1.512,0,0,0-.103.40186Z"/>
    <path d="M58.15576,32.78955l-2.11914-2.54394h.98877l1.644,2.10009,1.63086-2.10009h.96289l-2.09277,2.54394,2.542,3h-1.001l-2.06836-2.50781-2.02881,2.50781h-.92432Z"/>
    <path d="M65.71924,30.89355H64.02393v3.61182a.75.75,0,0,0,.21875.57617.84823.84823,0,0,0,.60351.2041,1.87732,1.87732,0,0,0,.44238-.05419,2.99851,2.99851,0,0,0,.43067-.1377l.06445.648a4.82594,4.82594,0,0,1-.501.13184,2.44465,2.44465,0,0,1-.501.06005,1.95259,1.95259,0,0,1-.70606-.11425,1.25692,1.25692,0,0,1-.47558-.30567,1.17472,1.17472,0,0,1-.2627-.45019,1.77321,1.77321,0,0,1-.084-.55811V30.89355H61.96924v-.64794h1.28418v-1.5962h.77051v1.5962h1.69531Z"/>
  </g>
  <path d="M25.59961,80.74561h-.0127l-1.64355,1.25976-.4751-.55176,2.24707-1.71631h.65528v8.4961h-.771Z"/>
  <path d="M54.457,87.39453l3.416-3.37207c.15429-.14453.30859-.29785.4624-.46191a4.23575,4.23575,0,0,0,.417-.5166,2.7511,2.7511,0,0,0,.30274-.56934,1.80747,1.80747,0,0,0,.11523-.64844,1.42311,1.42311,0,0,0-.51367-1.16406,1.98149,1.98149,0,0,0-1.29736-.41992A1.87255,1.87255,0,0,0,56.165,80.626a1.72577,1.72577,0,0,0-.62891,1.00781l-.89892-.084a2.25083,2.25083,0,0,1,.96289-1.46972,3.216,3.216,0,0,1,1.79785-.48633,3.32225,3.32225,0,0,1,1.002.15039,2.71636,2.71636,0,0,1,.835.42578,2.06465,2.06465,0,0,1,.57032.67774,1.92743,1.92743,0,0,1,.21289.91894,2.5591,2.5591,0,0,1-.16016.91113,3.71406,3.71406,0,0,1-.42383.79883,5.17128,5.17128,0,0,1-.60351.71387q-.34131.33545-.6875.67187l-2.83838,2.72364h4.77783v.64844H54.457Z"/>
  <path d="M86.89941,86.458a2.19891,2.19891,0,0,0,.69971.94189A1.99043,1.99043,0,0,0,88.813,87.73a2.51487,2.51487,0,0,0,.88574-.144,1.74238,1.74238,0,0,0,.63574-.396,1.67316,1.67316,0,0,0,.37891-.58789,1.993,1.993,0,0,0,.12891-.72021,1.46349,1.46349,0,0,0-.2129-.80372,1.686,1.686,0,0,0-.55175-.54638,2.48731,2.48731,0,0,0-.77051-.30567,3.96911,3.96911,0,0,0-.8667-.09619h-.334v-.72021h.38525a3.02744,3.02744,0,0,0,.72559-.08985,2.06736,2.06736,0,0,0,.65527-.28173,1.499,1.499,0,0,0,.46777-.498,1.42169,1.42169,0,0,0,.18067-.73828,1.4895,1.4895,0,0,0-.45606-1.12207,1.69878,1.69878,0,0,0-1.22656-.438,1.933,1.933,0,0,0-1.01416.27,1.9533,1.9533,0,0,0-.70654.72607l-.73194-.38379a2.22768,2.22768,0,0,1,1.021-.96,3.36555,3.36555,0,0,1,1.43164-.30029,3.40288,3.40288,0,0,1,.97607.13818,2.43214,2.43214,0,0,1,.80909.40772,1.91324,1.91324,0,0,1,.54492.67822,2.166,2.166,0,0,1,.19922.96,1.96289,1.96289,0,0,1-.41016,1.23,2.12693,2.12693,0,0,1-1.207.73828V83.77a2.37642,2.37642,0,0,1,.78906.27,2.349,2.349,0,0,1,.61133.48584,2.15518,2.15518,0,0,1,.39648.64795,2.05466,2.05466,0,0,1,.14258.76806,2.587,2.587,0,0,1-.17383.94776,2.07329,2.07329,0,0,1-.52734.77441,2.53219,2.53219,0,0,1-.87891.522,3.59883,3.59883,0,0,1-1.23291.19189,3.49945,3.49945,0,0,1-1.74023-.40186A2.49268,2.49268,0,0,1,86.06445,86.71Z"/>
  <path d="M121.37061,86.14551h-3.92969V85.294l3.63428-5.55665h1.06591v5.76075h1.38672v.64746h-1.38672V88.2334h-.7705Zm0-5.61621h-.02588l-3.21045,4.96875h3.23633Z"/>
  <path d="M154.53223,80.38574h-3.75l-.03809,2.7002a2.11455,2.11455,0,0,1,.64356-.1919,4.947,4.947,0,0,1,.68261-.04834,2.9825,2.9825,0,0,1,1.17871.22217,2.642,2.642,0,0,1,.88868.606,2.72227,2.72227,0,0,1,.56835.894,2.95959,2.95959,0,0,1,.19922,1.08594,2.60273,2.60273,0,0,1-.26367,1.20019,2.54629,2.54629,0,0,1-.6875.85205,2.98332,2.98332,0,0,1-.9375.50391,3.25726,3.25726,0,0,1-1.01465.168,3.33927,3.33927,0,0,1-1.67578-.38428A2.706,2.706,0,0,1,149.2793,86.938l.79687-.37207a1.77045,1.77045,0,0,0,.31445.45019,2.34974,2.34974,0,0,0,.45606.37159,2.22554,2.22554,0,0,0,.55176.252,2.06121,2.06121,0,0,0,.60351.09033,2.02513,2.02513,0,0,0,.668-.126,2.19977,2.19977,0,0,0,.668-.37793,2.07208,2.07208,0,0,0,.51465-.63623,1.85576,1.85576,0,0,0,.20508-.88818,2.16453,2.16453,0,0,0-.65528-1.55957,2.31115,2.31115,0,0,0-.72558-.47412,2.33486,2.33486,0,0,0-.90528-.17432,2.85906,2.85906,0,0,0-.95117.16211,3.89678,3.89678,0,0,0-.84668.41406l.0752-4.332h4.4834Z"/>
  <path d="M182.51855,83.48193h.0254a1.58557,1.58557,0,0,1,.623-.27,3.24806,3.24806,0,0,1,.72559-.08984,3.00612,3.00612,0,0,1,1.11719.20361,2.73511,2.73511,0,0,1,.88574.55811,2.51048,2.51048,0,0,1,.57812.82812,2.55612,2.55612,0,0,1,.20508,1.02588,2.47376,2.47376,0,0,1-.84766,1.896,2.93614,2.93614,0,0,1-.94335.5459,3.65874,3.65874,0,0,1-2.376,0,2.93619,2.93619,0,0,1-.94336-.5459,2.46313,2.46313,0,0,1-.62305-.834,2.63575,2.63575,0,0,1-.14746-1.69775,3.15145,3.15145,0,0,1,.20508-.57031q.12891-.26953.26953-.50977c.09473-.16015.18848-.312.2832-.456l2.46582-3.82813h.97559Zm1.18165.26416a2.20342,2.20342,0,0,0-.835.15577,2.16244,2.16244,0,0,0-.67382.42626,1.97743,1.97743,0,0,0-.45606.63575,1.84323,1.84323,0,0,0-.167.77392,2.0527,2.0527,0,0,0,.1543.81006,1.80707,1.80707,0,0,0,.43652.62988,1.97221,1.97221,0,0,0,.67383.40821,2.67952,2.67952,0,0,0,1.7334,0,1.98584,1.98584,0,0,0,.6748-.40821,1.80462,1.80462,0,0,0,.43555-.62988,2.05287,2.05287,0,0,0,.15429-.81006,1.84235,1.84235,0,0,0-.166-.77392,1.99219,1.99219,0,0,0-.45606-.63575,2.15046,2.15046,0,0,0-.68066-.42626A2.21533,2.21533,0,0,0,183.7002,83.74609Z"/>
  <path d="M217.6582,80.38477l-3.62207,7.84814h-.86035l3.68652-7.84814h-4.36718v-.648h5.16308Z"/>
  <path d="M244.42383,81.80273a2.062,2.062,0,0,1,.71972-1.5957,2.42388,2.42388,0,0,1,.78907-.45019,3.05789,3.05789,0,0,1,1.96484,0,2.4389,2.4389,0,0,1,.79.45019,2.057,2.057,0,0,1,.71875,1.5957,1.79019,1.79019,0,0,1-.10156.59375,2.17477,2.17477,0,0,1-.28907.55176,1.97689,1.97689,0,0,1-.45605.4502,1.78949,1.78949,0,0,1-.60352.27636v.01172a2.18742,2.18742,0,0,1,.76465.29395,2.15674,2.15674,0,0,1,.89258,1.15234,2.3878,2.3878,0,0,1,.11524.73828,2.43737,2.43737,0,0,1-.2129,1.03711,2.25168,2.25168,0,0,1-.58984.78614,2.77146,2.77146,0,0,1-.89258.5039,3.54746,3.54746,0,0,1-2.23535,0,2.76124,2.76124,0,0,1-.89258-.5039,2.26622,2.26622,0,0,1-.59082-.78614,2.46691,2.46691,0,0,1-.21191-1.03711,2.35968,2.35968,0,0,1,.11621-.73828,2.12314,2.12314,0,0,1,1.65625-1.44629V83.6748a1.77235,1.77235,0,0,1-.60352-.27636,1.93924,1.93924,0,0,1-.45605-.4502,2.14423,2.14423,0,0,1-.28906-.55176A1.79148,1.79148,0,0,1,244.42383,81.80273Zm.52637,4.06836a1.82682,1.82682,0,0,0,.1416.71973,1.77115,1.77115,0,0,0,.39843.58789,1.93056,1.93056,0,0,0,.61622.40234,2.26521,2.26521,0,0,0,1.61816,0,1.94611,1.94611,0,0,0,.61719-.40234,1.82562,1.82562,0,0,0,.53906-1.30762,1.7965,1.7965,0,0,0-1.19531-1.72851,2.31746,2.31746,0,0,0-1.541,0,1.79354,1.79354,0,0,0-1.04.96582A1.84139,1.84139,0,0,0,244.9502,85.87109Zm.32128-4.06836a1.51086,1.51086,0,0,0,.12207.60547,1.53589,1.53589,0,0,0,.334.49219,1.58367,1.58367,0,0,0,.51367.33594,1.84952,1.84952,0,0,0,1.3418,0,1.52256,1.52256,0,0,0,.85449-.82813,1.51086,1.51086,0,0,0,.12207-.60547,1.45822,1.45822,0,0,0-.46875-1.13378,1.83176,1.83176,0,0,0-2.35059,0A1.45822,1.45822,0,0,0,245.27148,81.80273Z"/>
  <line x1="25.5" y1="119" x2="25.50001" y2="166" style="stroke: #000;stroke-miterlimit: 10"/>
  <line x1="57.26918" y1="118.97659" x2="57.26919" y2="165.76769" style="stroke: #000;stroke-miterlimit: 10"/>
  <line x1="88.87682" y1="118.97658" x2="88.87683" y2="165.76768" style="stroke: #000;stroke-miterlimit: 10"/>
  <line x1="120.48456" y1="118.97659" x2="120.48457" y2="165.76769" style="stroke: #000;stroke-miterlimit: 10"/>
  <line x1="152.09229" y1="118.97659" x2="152.0923" y2="165.76769" style="stroke: #000;stroke-miterlimit: 10"/>
  <line x1="183.69985" y1="118.97657" x2="183.69986" y2="165.76767" style="stroke: #000;stroke-miterlimit: 10"/>
  <line x1="215.30772" y1="118.97657" x2="215.30773" y2="165.76767" style="stroke: #000;stroke-miterlimit: 10"/>
  <line x1="246.91524" y1="118.97656" x2="246.91525" y2="165.76766" style="stroke: #000;stroke-miterlimit: 10"/>
  <line x1="25.58673" y1="241.2089" x2="25.58674" y2="288" style="stroke: #000;stroke-miterlimit: 10"/>
  <line x1="57.19439" y1="241.2089" x2="57.1944" y2="288" style="stroke: #000;stroke-miterlimit: 10"/>
  <line x1="88.80203" y1="241.20889" x2="88.80204" y2="287.99999" style="stroke: #000;stroke-miterlimit: 10"/>
  <line x1="120.40977" y1="241.2089" x2="120.40978" y2="288" style="stroke: #000;stroke-miterlimit: 10"/>
  <line x1="152.0175" y1="241.2089" x2="152.01751" y2="288" style="stroke: #000;stroke-miterlimit: 10"/>
  <line x1="183.62506" y1="241.20888" x2="183.62507" y2="287.99998" style="stroke: #000;stroke-miterlimit: 10"/>
  <line x1="215.23293" y1="241.20888" x2="215.23294" y2="287.99998" style="stroke: #000;stroke-miterlimit: 10"/>
  <line x1="246.84045" y1="241.20888" x2="246.84046" y2="287.99998" style="stroke: #000;stroke-miterlimit: 10"/>
  <g>
    <path d="M121.83008,336.64746a3.71893,3.71893,0,0,1-.32129,1.668,2.65451,2.65451,0,0,1-.80274.9834,2.72457,2.72457,0,0,1-1.03369.46777,4.753,4.753,0,0,1-1.00146.12012,4.85336,4.85336,0,0,1-.87988-.07813,4.414,4.414,0,0,1-.81543-.22754,3.423,3.423,0,0,1-.69971-.36621,2.658,2.658,0,0,1-.5459-.49218l.60352-.52735a2.42706,2.42706,0,0,0,1.02734.792,3.42954,3.42954,0,0,0,1.31006.252,2.9716,2.9716,0,0,0,.99512-.14453,1.99958,1.99958,0,0,0,.668-.37793,1.82323,1.82323,0,0,0,.41065-.51563,2.53629,2.53629,0,0,0,.21826-.56445,2.76993,2.76993,0,0,0,.0835-.5332c.00879-.168.01318-.30469.01318-.40821v-.76855h-.02588a2.30408,2.30408,0,0,1-.90527.792,2.94417,2.94417,0,0,1-1.34229.28809,3.39959,3.39959,0,0,1-1.23291-.22168,3.176,3.176,0,0,1-1.00781-.61231,2.939,2.939,0,0,1-.68066-.90625,2.55813,2.55813,0,0,1,0-2.208,2.87749,2.87749,0,0,1,.68066-.89941,3.36555,3.36555,0,0,1,2.24072-.83984,2.94417,2.94417,0,0,1,1.34229.28808,2.30415,2.30415,0,0,1,.90527.792h.02588v-.93652h.77051Zm-.74512-2.48437a2.02283,2.02283,0,0,0-.186-.8584,2.2262,2.2262,0,0,0-.501-.69531,2.39582,2.39582,0,0,0-.74463-.46876,2.51217,2.51217,0,0,0-1.83643,0,2.39259,2.39259,0,0,0-.74511.46876,2.21826,2.21826,0,0,0-.501.69531,2.07345,2.07345,0,0,0,0,1.71679,2.20737,2.20737,0,0,0,.501.69532,2.39238,2.39238,0,0,0,.74511.46875,2.512,2.512,0,0,0,1.83643,0,2.39562,2.39562,0,0,0,.74463-.46875,2.21524,2.21524,0,0,0,.501-.69532A2.02279,2.02279,0,0,0,121.085,334.16309Z"/>
    <path d="M128.32812,334.67871q0,.40869.00635.73242.0066.32373.01953.59961c.0083.18457.019.35645.03174.5166.01319.16016.03223.31934.05811.4795h-.71924a4.85876,4.85876,0,0,1-.07715-.89942h-.02588a2.09929,2.09929,0,0,1-.82812.792,2.74806,2.74806,0,0,1-1.252.252,3.23637,3.23637,0,0,1-.75781-.08985,2.07209,2.07209,0,0,1-.668-.28808,1.581,1.581,0,0,1-.48144-.51074,1.45059,1.45059,0,0,1-.186-.75586,1.41824,1.41824,0,0,1,.34668-1.00782,2.16285,2.16285,0,0,1,.854-.55761,4.29515,4.29515,0,0,1,1.07861-.24024q.57129-.05419,1.0083-.05371h.89893v-.33594a1.14228,1.14228,0,0,0-.4751-1.03222,2.13436,2.13436,0,0,0-1.19434-.3125,2.82406,2.82406,0,0,0-1.811.624l-.44922-.49219a2.7996,2.7996,0,0,1,1.05273-.582,4.02394,4.02394,0,0,1,1.20752-.19726,2.83753,2.83753,0,0,1,1.72071.47363,1.77576,1.77576,0,0,1,.64208,1.53027Zm-1.541-.45605a7.21453,7.21453,0,0,0-.94385.06054,3.44326,3.44326,0,0,0-.82178.2041,1.52543,1.52543,0,0,0-.58447.38379.85873.85873,0,0,0-.21826.59961.83889.83889,0,0,0,.12207.4502,1.02306,1.02306,0,0,0,.31445.32422,1.52243,1.52243,0,0,0,.43018.19238,1.79094,1.79094,0,0,0,.48144.06543,2.62385,2.62385,0,0,0,1.01465-.168,1.73144,1.73144,0,0,0,.63575-.4375,1.49988,1.49988,0,0,0,.32763-.6123,2.72348,2.72348,0,0,0,.08985-.69043v-.37207Z"/>
    <path d="M133.28516,332.11133h-1.69532v3.61133a.74974.74974,0,0,0,.21827.57617.84728.84728,0,0,0,.604.2041,1.88348,1.88348,0,0,0,.44287-.05371,3.02925,3.02925,0,0,0,.43018-.1377l.06445.64746a4.89,4.89,0,0,1-.501.13184,2.44787,2.44787,0,0,1-.501.06055,1.95628,1.95628,0,0,1-.70606-.11426,1.26267,1.26267,0,0,1-.47558-.30566,1.18573,1.18573,0,0,1-.26319-.4502,1.805,1.805,0,0,1-.08349-.55859v-3.61133h-1.28418v-.64844h1.28418v-1.5957h.7705v1.5957h1.69532Z"/>
    <path d="M139.89844,335.96289a2.55254,2.55254,0,0,1-1.11084.91211,3.75762,3.75762,0,0,1-1.45752.27637,3.36606,3.36606,0,0,1-1.23291-.21582,2.81089,2.81089,0,0,1-.95069-.60645,2.65041,2.65041,0,0,1-.60986-.92383,3.18413,3.18413,0,0,1-.21191-1.18261,2.98492,2.98492,0,0,1,.21826-1.15137,2.72015,2.72015,0,0,1,.6167-.918,2.9086,2.9086,0,0,1,.9375-.6123,3.1173,3.1173,0,0,1,1.19433-.22168,3.046,3.046,0,0,1,1.20069.22168,2.63294,2.63294,0,0,1,.873.58789,2.47357,2.47357,0,0,1,.53321.834,2.64174,2.64174,0,0,1,.17968.94824v.50391h-4.98291a2.306,2.306,0,0,0,.09668.582,2.00141,2.00141,0,0,0,.353.69043,2.17773,2.17773,0,0,0,.687.5752,2.26332,2.26332,0,0,0,1.11084.24023,2.62467,2.62467,0,0,0,1.14307-.26367,2.02043,2.02043,0,0,0,.84766-.71973Zm-.59082-2.19629a1.547,1.547,0,0,0-.16065-.69531,1.87158,1.87158,0,0,0-.43652-.57031,2.08146,2.08146,0,0,0-.65479-.38965,2.22855,2.22855,0,0,0-.80273-.14453,2.07451,2.07451,0,0,0-1.04688.24023,2.24432,2.24432,0,0,0-.66113.55176,2.1467,2.1467,0,0,0-.34668.60644,1.51442,1.51442,0,0,0-.103.40137Z"/>
    <path d="M144.80371,334.23535a2.909,2.909,0,0,1,.23145-1.16992,2.79862,2.79862,0,0,1,.6416-.92481,2.87982,2.87982,0,0,1,.98926-.60546,3.553,3.553,0,0,1,1.25878-.21582,3.50371,3.50371,0,0,1,1.252.21582,2.96083,2.96083,0,0,1,.98828.60546,2.733,2.733,0,0,1,.64844.92481,3.07267,3.07267,0,0,1,0,2.33984,2.72906,2.72906,0,0,1-.64844.92383,2.97888,2.97888,0,0,1-.98828.60645,3.52556,3.52556,0,0,1-1.252.21582,3.57528,3.57528,0,0,1-1.25878-.21582,2.8968,2.8968,0,0,1-.98926-.60645,2.79446,2.79446,0,0,1-.6416-.92383A2.91237,2.91237,0,0,1,144.80371,334.23535Zm.77051,0a2.4125,2.4125,0,0,0,.16113.88184,2.02394,2.02394,0,0,0,.46875.71972,2.26632,2.26632,0,0,0,.74414.48633,2.74086,2.74086,0,0,0,1.95215,0,2.28093,2.28093,0,0,0,.74512-.48633,2.05043,2.05043,0,0,0,.46875-.71972,2.5079,2.5079,0,0,0,0-1.76367,2.05433,2.05433,0,0,0-.46875-.72071,2.26324,2.26324,0,0,0-.74512-.48535,2.72711,2.72711,0,0,0-1.95215,0,2.24883,2.24883,0,0,0-.74414.48535,2.02778,2.02778,0,0,0-.46875.72071A2.405,2.405,0,0,0,145.57422,334.23535Z"/>
    <path d="M157.78809,335.44727c0,.10351.0039.22949.01269.37793s.01465.29785.01953.45019c.00391.15137.01074.29395.01856.42578.00879.13184.01367.23438.01367.30567H157.082q-.01318-.312-.01953-.59961a1.8387,1.8387,0,0,0-.03223-.37207h-.03808a1.99657,1.99657,0,0,1-.77149.78613,2.3623,2.3623,0,0,1-1.25781.33008,2.731,2.731,0,0,1-1.13672-.2041,1.78279,1.78279,0,0,1-.69336-.53418,1.87884,1.87884,0,0,1-.34082-.76172,4.37522,4.37522,0,0,1-.08984-.88867v-3.29981h.77051v3.26465a3.27947,3.27947,0,0,0,.06445.65332,1.65988,1.65988,0,0,0,.22461.57031,1.1537,1.1537,0,0,0,.44922.40235,1.63987,1.63987,0,0,0,.75195.14941,2.33446,2.33446,0,0,0,.80273-.1377,1.737,1.737,0,0,0,.6543-.41992,1.995,1.995,0,0,0,.43653-.708,2.82962,2.82962,0,0,0,.16113-1.002v-2.77246h.77051Z"/>
    <path d="M162.80859,332.11133h-1.69531v3.61133a.75.75,0,0,0,.21875.57617.84606.84606,0,0,0,.60352.2041,1.87644,1.87644,0,0,0,.44238-.05371,2.99547,2.99547,0,0,0,.43066-.1377l.06446.64746a4.82342,4.82342,0,0,1-.501.13184,2.448,2.448,0,0,1-.501.06055,1.95256,1.95256,0,0,1-.70605-.11426,1.26271,1.26271,0,0,1-.47559-.30566,1.17839,1.17839,0,0,1-.26269-.4502,1.77625,1.77625,0,0,1-.084-.55859v-3.61133h-1.28418v-.64844h1.28418v-1.5957h.77051v1.5957h1.69531Z"/>
  </g>
  <line x1="26" y1="316.5" x2="247" y2="316.49992" style="fill: none;stroke: #000;stroke-miterlimit: 10;stroke-width: 0.75px"/>
  <line x1="25.61042" y1="311.06895" x2="25.61044" y2="316.77782" style="stroke: #000;stroke-miterlimit: 10"/>
  <line x1="57.21808" y1="311.06895" x2="57.2181" y2="316.77782" style="stroke: #000;stroke-miterlimit: 10"/>
  <line x1="88.82572" y1="311.06895" x2="88.82573" y2="316.77781" style="stroke: #000;stroke-miterlimit: 10"/>
  <line x1="120.43346" y1="311.06895" x2="120.43347" y2="316.77782" style="stroke: #000;stroke-miterlimit: 10"/>
  <line x1="152.04119" y1="311.06895" x2="152.04121" y2="316.77782" style="stroke: #000;stroke-miterlimit: 10"/>
  <line x1="183.64875" y1="311.06895" x2="183.64876" y2="316.77781" style="stroke: #000;stroke-miterlimit: 10"/>
  <line x1="215.25662" y1="311.06895" x2="215.25663" y2="316.77781" style="stroke: #000;stroke-miterlimit: 10"/>
  <line x1="246.86414" y1="311.06895" x2="246.86415" y2="316.77781" style="stroke: #000;stroke-miterlimit: 10"/>
</svg>
